<svg xmlns="http://www.w3.org/2000/svg" style="display: none;">
  <!-- CNC Vertical Machining Center (HAAS VF, etc.) -->
  <symbol id="icon-vmc" viewBox="0 0 100 100">
    <rect x="5" y="5" width="90" height="90" fill="none" stroke="currentColor" stroke-width="2" rx="4"/>
    <rect x="15" y="15" width="50" height="40" fill="none" stroke="currentColor" stroke-width="1.5"/>
    <rect x="20" y="20" width="40" height="30" fill="none" stroke="currentColor" stroke-width="1" stroke-dasharray="2,2"/>
    <circle cx="40" cy="35" r="8" fill="none" stroke="currentColor" stroke-width="1.5"/>
    <line x1="40" y1="27" x2="40" y2="20" stroke="currentColor" stroke-width="2"/>
    <rect x="70" y="15" width="20" height="70" fill="none" stroke="currentColor" stroke-width="1.5"/>
    <rect x="73" y="20" width="14" height="8" fill="currentColor" opacity="0.3"/>
    <circle cx="80" cy="35" r="3" fill="currentColor" opacity="0.5"/>
    <circle cx="80" cy="45" r="3" fill="currentColor" opacity="0.5"/>
    <line x1="73" y1="55" x2="87" y2="55" stroke="currentColor" stroke-width="1"/>
    <rect x="15" y="60" width="50" height="25" fill="none" stroke="currentColor" stroke-width="1.5"/>
    <line x1="25" y1="65" x2="25" y2="80" stroke="currentColor" stroke-width="1"/>
    <line x1="35" y1="65" x2="35" y2="80" stroke="currentColor" stroke-width="1"/>
    <line x1="45" y1="65" x2="45" y2="80" stroke="currentColor" stroke-width="1"/>
    <line x1="55" y1="65" x2="55" y2="80" stroke="currentColor" stroke-width="1"/>
  </symbol>

  <!-- CNC Lathe / Torno (Tsugami, NLX, etc.) -->
  <symbol id="icon-torno" viewBox="0 0 120 60">
    <rect x="5" y="5" width="110" height="50" fill="none" stroke="currentColor" stroke-width="2" rx="3"/>
    <circle cx="25" cy="30" r="15" fill="none" stroke="currentColor" stroke-width="2"/>
    <circle cx="25" cy="30" r="8" fill="none" stroke="currentColor" stroke-width="1.5"/>
    <circle cx="25" cy="30" r="3" fill="currentColor" opacity="0.5"/>
    <rect x="42" y="18" width="35" height="24" fill="none" stroke="currentColor" stroke-width="1.5"/>
    <line x1="42" y1="30" x2="77" y2="30" stroke="currentColor" stroke-width="1" stroke-dasharray="3,2"/>
    <polygon points="80,30 90,24 90,36" fill="currentColor" opacity="0.4" stroke="currentColor" stroke-width="1"/>
    <rect x="92" y="10" width="18" height="40" fill="none" stroke="currentColor" stroke-width="1.5"/>
    <rect x="95" y="15" width="12" height="8" fill="currentColor" opacity="0.3"/>
    <circle cx="101" cy="30" r="2" fill="currentColor" opacity="0.5"/>
    <circle cx="101" cy="38" r="2" fill="currentColor" opacity="0.5"/>
    <line x1="5" y1="48" x2="115" y2="48" stroke="currentColor" stroke-width="1"/>
  </symbol>

  <!-- Swiss-Type Lathe (Tsugami TAM8J) -->
  <symbol id="icon-swiss" viewBox="0 0 100 70">
    <rect x="5" y="10" width="90" height="50" fill="none" stroke="currentColor" stroke-width="2" rx="3"/>
    <rect x="5" y="5" width="25" height="10" fill="none" stroke="currentColor" stroke-width="1.5"/>
    <circle cx="25" cy="35" r="12" fill="none" stroke="currentColor" stroke-width="2"/>
    <circle cx="25" cy="35" r="6" fill="none" stroke="currentColor" stroke-width="1"/>
    <line x1="37" y1="35" x2="55" y2="35" stroke="currentColor" stroke-width="2"/>
    <rect x="55" y="25" width="20" height="20" fill="none" stroke="currentColor" stroke-width="1.5"/>
    <line x1="60" y1="28" x2="60" y2="42" stroke="currentColor" stroke-width="1"/>
    <line x1="65" y1="28" x2="65" y2="42" stroke="currentColor" stroke-width="1"/>
    <line x1="70" y1="28" x2="70" y2="42" stroke="currentColor" stroke-width="1"/>
    <rect x="78" y="12" width="15" height="46" fill="none" stroke="currentColor" stroke-width="1.5"/>
    <rect x="80" y="16" width="11" height="6" fill="currentColor" opacity="0.3"/>
    <circle cx="85" cy="28" r="2" fill="currentColor" opacity="0.5"/>
    <circle cx="85" cy="35" r="2" fill="currentColor" opacity="0.5"/>
    <circle cx="85" cy="42" r="2" fill="currentColor" opacity="0.5"/>
  </symbol>

  <!-- DMG Mori Turn-Mill Center -->
  <symbol id="icon-turnmill" viewBox="0 0 110 70">
    <rect x="5" y="10" width="100" height="50" fill="none" stroke="currentColor" stroke-width="2" rx="4"/>
    <circle cx="30" cy="35" r="14" fill="none" stroke="currentColor" stroke-width="2"/>
    <circle cx="30" cy="35" r="7" fill="none" stroke="currentColor" stroke-width="1.5"/>
    <circle cx="30" cy="35" r="2" fill="currentColor"/>
    <line x1="44" y1="35" x2="60" y2="35" stroke="currentColor" stroke-width="2"/>
    <rect x="45" y="20" width="5" height="30" fill="none" stroke="currentColor" stroke-width="1"/>
    <rect x="60" y="18" width="25" height="34" fill="none" stroke="currentColor" stroke-width="1.5"/>
    <circle cx="72" cy="30" r="6" fill="none" stroke="currentColor" stroke-width="1.5"/>
    <line x1="72" y1="24" x2="72" y2="18" stroke="currentColor" stroke-width="1.5"/>
    <circle cx="72" cy="42" r="4" fill="none" stroke="currentColor" stroke-width="1"/>
    <rect x="88" y="12" width="15" height="46" fill="none" stroke="currentColor" stroke-width="1.5"/>
    <rect x="90" y="15" width="11" height="8" fill="currentColor" opacity="0.3"/>
    <line x1="90" y1="28" x2="101" y2="28" stroke="currentColor" stroke-width="1"/>
    <circle cx="95" cy="35" r="2" fill="currentColor" opacity="0.5"/>
    <circle cx="95" cy="42" r="2" fill="currentColor" opacity="0.5"/>
    <circle cx="95" cy="49" r="2" fill="currentColor" opacity="0.5"/>
  </symbol>

  <!-- Workbench / Banco de Trabajo -->
  <symbol id="icon-workbench" viewBox="0 0 100 60">
    <rect x="5" y="10" width="90" height="40" fill="none" stroke="currentColor" stroke-width="2" rx="2"/>
    <line x1="5" y1="20" x2="95" y2="20" stroke="currentColor" stroke-width="1.5"/>
    <line x1="20" y1="50" x2="20" y2="58" stroke="currentColor" stroke-width="3"/>
    <line x1="80" y1="50" x2="80" y2="58" stroke="currentColor" stroke-width="3"/>
    <rect x="10" y="25" width="15" height="20" fill="none" stroke="currentColor" stroke-width="1"/>
    <line x1="10" y1="32" x2="25" y2="32" stroke="currentColor" stroke-width="0.5"/>
    <line x1="10" y1="38" x2="25" y2="38" stroke="currentColor" stroke-width="0.5"/>
    <rect x="30" y="25" width="25" height="20" fill="none" stroke="currentColor" stroke-width="1" stroke-dasharray="2,1"/>
    <circle cx="75" cy="35" r="8" fill="none" stroke="currentColor" stroke-width="1"/>
    <line x1="75" y1="27" x2="75" y2="43" stroke="currentColor" stroke-width="1"/>
    <line x1="67" y1="35" x2="83" y2="35" stroke="currentColor" stroke-width="1"/>
  </symbol>

  <!-- Drilling Machine / Agujereadora -->
  <symbol id="icon-drill" viewBox="0 0 60 100">
    <rect x="10" y="5" width="40" height="90" fill="none" stroke="currentColor" stroke-width="2" rx="3"/>
    <rect x="20" y="10" width="20" height="15" fill="none" stroke="currentColor" stroke-width="1.5"/>
    <rect x="23" y="13" width="14" height="9" fill="currentColor" opacity="0.3"/>
    <line x1="30" y1="25" x2="30" y2="45" stroke="currentColor" stroke-width="3"/>
    <polygon points="25,45 35,45 30,60" fill="none" stroke="currentColor" stroke-width="1.5"/>
    <line x1="30" y1="55" x2="30" y2="70" stroke="currentColor" stroke-width="1" stroke-dasharray="2,1"/>
    <rect x="15" y="70" width="30" height="20" fill="none" stroke="currentColor" stroke-width="1.5"/>
    <line x1="20" y1="75" x2="40" y2="75" stroke="currentColor" stroke-width="1"/>
    <line x1="20" y1="80" x2="40" y2="80" stroke="currentColor" stroke-width="1"/>
    <line x1="20" y1="85" x2="40" y2="85" stroke="currentColor" stroke-width="1"/>
  </symbol>

  <!-- Robot -->
  <symbol id="icon-robot" viewBox="0 0 80 80">
    <circle cx="40" cy="40" r="35" fill="none" stroke="currentColor" stroke-width="2"/>
    <rect x="25" y="25" width="30" height="25" fill="none" stroke="currentColor" stroke-width="1.5" rx="3"/>
    <circle cx="33" cy="35" r="4" fill="currentColor" opacity="0.5"/>
    <circle cx="47" cy="35" r="4" fill="currentColor" opacity="0.5"/>
    <line x1="30" y1="44" x2="50" y2="44" stroke="currentColor" stroke-width="1.5"/>
    <line x1="20" y1="55" x2="35" y2="50" stroke="currentColor" stroke-width="2"/>
    <line x1="60" y1="55" x2="45" y2="50" stroke="currentColor" stroke-width="2"/>
    <circle cx="18" cy="58" r="4" fill="none" stroke="currentColor" stroke-width="1.5"/>
    <circle cx="62" cy="58" r="4" fill="none" stroke="currentColor" stroke-width="1.5"/>
    <line x1="40" y1="15" x2="40" y2="5" stroke="currentColor" stroke-width="1.5"/>
    <circle cx="40" cy="5" r="3" fill="currentColor" opacity="0.5"/>
  </symbol>

  <!-- Press / Prensa -->
  <symbol id="icon-press" viewBox="0 0 80 100">
    <rect x="10" y="5" width="60" height="90" fill="none" stroke="currentColor" stroke-width="2" rx="3"/>
    <rect x="15" y="10" width="50" height="15" fill="none" stroke="currentColor" stroke-width="1.5"/>
    <rect x="20" y="13" width="40" height="9" fill="currentColor" opacity="0.3"/>
    <rect x="30" y="30" width="20" height="30" fill="none" stroke="currentColor" stroke-width="2"/>
    <line x1="35" y1="35" x2="45" y2="35" stroke="currentColor" stroke-width="1"/>
    <line x1="35" y1="42" x2="45" y2="42" stroke="currentColor" stroke-width="1"/>
    <line x1="35" y1="49" x2="45" y2="49" stroke="currentColor" stroke-width="1"/>
    <line x1="35" y1="56" x2="45" y2="56" stroke="currentColor" stroke-width="1"/>
    <polygon points="30,60 50,60 55,75 25,75" fill="none" stroke="currentColor" stroke-width="1.5"/>
    <rect x="15" y="80" width="50" height="10" fill="none" stroke="currentColor" stroke-width="1.5"/>
    <line x1="25" y1="85" x2="55" y2="85" stroke="currentColor" stroke-width="1" stroke-dasharray="3,2"/>
  </symbol>

  <!-- Generic CNC Machine -->
  <symbol id="icon-cnc-generic" viewBox="0 0 100 100">
    <rect x="5" y="5" width="90" height="90" fill="none" stroke="currentColor" stroke-width="2" rx="5"/>
    <rect x="15" y="15" width="45" height="45" fill="none" stroke="currentColor" stroke-width="1.5"/>
    <line x1="20" y1="20" x2="55" y2="55" stroke="currentColor" stroke-width="0.5" stroke-dasharray="2,2"/>
    <line x1="55" y1="20" x2="20" y2="55" stroke="currentColor" stroke-width="0.5" stroke-dasharray="2,2"/>
    <circle cx="37" cy="37" r="12" fill="none" stroke="currentColor" stroke-width="1.5"/>
    <circle cx="37" cy="37" r="5" fill="none" stroke="currentColor" stroke-width="1"/>
    <rect x="65" y="15" width="25" height="70" fill="none" stroke="currentColor" stroke-width="1.5"/>
    <rect x="68" y="20" width="19" height="12" fill="currentColor" opacity="0.3"/>
    <circle cx="77" cy="42" r="4" fill="currentColor" opacity="0.4"/>
    <circle cx="77" cy="55" r="4" fill="currentColor" opacity="0.4"/>
    <circle cx="77" cy="68" r="4" fill="currentColor" opacity="0.4"/>
    <rect x="15" y="65" width="45" height="20" fill="none" stroke="currentColor" stroke-width="1.5"/>
    <line x1="25" y1="70" x2="25" y2="80" stroke="currentColor" stroke-width="1"/>
    <line x1="37" y1="70" x2="37" y2="80" stroke="currentColor" stroke-width="1"/>
    <line x1="49" y1="70" x2="49" y2="80" stroke="currentColor" stroke-width="1"/>
  </symbol>
</svg>
